<?xml version="1.0" encoding="UTF-8" standalone="no"?>
<!-- Created with Inkscape (http://www.inkscape.org/) -->

<svg
   xmlns:dc="http://purl.org/dc/elements/1.1/"
   xmlns:cc="http://creativecommons.org/ns#"
   xmlns:rdf="http://www.w3.org/1999/02/22-rdf-syntax-ns#"
   xmlns:svg="http://www.w3.org/2000/svg"
   xmlns="http://www.w3.org/2000/svg"
   xmlns:sodipodi="http://sodipodi.sourceforge.net/DTD/sodipodi-0.dtd"
   xmlns:inkscape="http://www.inkscape.org/namespaces/inkscape"
   id="svg4190"
   version="1.1"
   inkscape:version="0.91 r13725"
   xml:space="preserve"
   width="707.97998"
   height="294.32663"
   viewBox="0 0 707.97998 294.32663"
   sodipodi:docname="logo.svg"><metadata
     id="metadata4196"><rdf:RDF><cc:Work
         rdf:about=""><dc:format>image/svg+xml</dc:format><dc:type
           rdf:resource="http://purl.org/dc/dcmitype/StillImage" /><dc:title></dc:title></cc:Work></rdf:RDF></metadata><defs
     id="defs4194" /><sodipodi:namedview
     pagecolor="#ffffff"
     bordercolor="#666666"
     borderopacity="1"
     objecttolerance="10"
     gridtolerance="10"
     guidetolerance="10"
     inkscape:pageopacity="0"
     inkscape:pageshadow="2"
     inkscape:window-width="1920"
     inkscape:window-height="1152"
     id="namedview4192"
     showgrid="false"
     fit-margin-top="0"
     fit-margin-left="0"
     fit-margin-right="0"
     fit-margin-bottom="0"
     inkscape:zoom="1.5560735"
     inkscape:cx="310.51947"
     inkscape:cy="122.86552"
     inkscape:window-x="0"
     inkscape:window-y="0"
     inkscape:window-maximized="1"
     inkscape:current-layer="g4198" /><g
     id="g4198"
     inkscape:groupmode="layer"
     inkscape:label="ink_ext_XXXXXX"
     transform="matrix(1.25,0,0,-1.25,-43.683468,606.0175)"><path
       inkscape:connector-curvature="0"
       id="path4202"
       style="fill:#515257;fill-opacity:1;fill-rule:nonzero;stroke:none"
       d="m 412.471,254.265 c -0.516,0.841 -1.142,1.017 -2.093,0.67 -0.659,-0.242 -1.105,-0.77 -0.977,-1.491 0.165,-0.925 1.359,-0.802 2.025,-0.641 0.969,0.234 1.542,0.795 1.736,1.754 -0.11,-0.118 -0.219,-0.235 -0.329,-0.352 0.249,0.164 0.735,0.506 0.648,0.881 -0.087,0.376 -0.533,0.444 -0.848,0.484 -0.973,0.123 -1.993,-0.233 -2.867,-0.62 -0.547,-0.242 -1.005,-0.594 -1.31,-1.107 -0.383,-0.642 1.083,-0.676 1.314,-0.663 1.037,0.054 2.324,0.385 3.079,1.147 -1.471,-0.801 -1.719,-0.975 -0.748,-0.523 0.278,0.134 0.527,0.308 0.748,0.523 0.059,0.057 0.114,0.115 0.169,0.176 0.017,0.021 0.033,0.043 0.049,0.063 -0.299,-0.256 -0.634,-0.45 -1.004,-0.58 -0.384,-0.102 -0.767,-0.205 -1.15,-0.308 -0.943,-0.157 -0.983,-0.052 -0.588,-0.057 0.223,-0.004 0.446,-0.001 0.669,-0.003 -0.265,0.049 -0.53,0.097 -0.795,0.145 0.119,-0.084 0.211,-0.154 0.261,-0.285 0.037,-0.097 0.006,-0.267 0.059,-0.204 0.16,0.191 0.893,0.487 1.273,0.4 -0.132,0.031 0.025,-0.029 -0.082,0.043 -0.107,0.074 -0.155,0.175 -0.201,0.293 -0.081,0.209 -0.077,0.447 -0.015,0.659 0.011,0.042 0.078,0.111 0.009,0.031 -0.961,-1.097 -1.49,-0.131 -1.022,-0.384 0.223,-0.12 0.402,-0.322 0.567,-0.508 0.24,-0.271 1.586,0.189 1.423,0.457 l 0,0" /><path
       inkscape:connector-curvature="0"
       id="path4268"
       style="fill:#515257;fill-opacity:1;fill-rule:nonzero;stroke:none"
       d="m 38.059,274.258 c 0.4512,3.502 0.9277,6.979 1.107,10.511 -1.0801,-0.291 -2.1601,-0.58 -3.2406,-0.87 3.3851,-4.219 14.4769,-1.254 18.8406,-1.187 0.1426,0.543 0.2852,1.086 0.4281,1.63 -4.9644,-1.664 -7.6199,-7.923 -10.5632,-11.863 -2.3704,-3.173 -4.4266,-6.411 -6.1782,-9.958 -1.4687,-2.975 -4.623,-7.969 -3.1011,-11.192 1.305,0.441 2.6109,0.882 3.9156,1.323 -0.2313,0.233 11.1094,-1.165 12.9891,-1.512 0.7667,-0.142 3.3339,0.209 3.3628,1.368 0.0887,3.51 1.5192,6.666 0.8946,10.171 -0.1625,0.908 -2.4934,0.158 -2.6641,-0.533 -0.8441,-3.402 -1.3137,-6.841 -2.3855,-10.19 1.1203,0.457 2.2414,0.912 3.3625,1.368 -4.7375,1.05 -15.6297,3.822 -19.3282,-1.436 -1.0886,-1.548 2.8469,-0.939 3.4981,-0.312 3.6769,3.538 4.7176,9.081 6.6984,13.717 1.5856,3.712 2.8028,7.276 4.9985,10.724 1.2668,1.989 2.9265,6.125 5.3257,6.949 1.0059,0.344 1.3969,1.515 0.0106,1.488 -2.8859,-0.056 -15.0332,-2.288 -16.977,0.738 -0.5914,0.921 -3.2515,-0.061 -3.2441,-1.097 0.0234,-3.391 -0.1438,-6.773 -0.2016,-10.163 -0.0164,-0.975 2.352,-0.451 2.452,0.326 l 0,0" /><path
       inkscape:connector-curvature="0"
       id="path4270"
       style="fill:#515257;fill-opacity:1;fill-rule:nonzero;stroke:none"
       d="m 61.6996,252.149 c 4.4852,10.165 7.2356,21.048 10.4836,31.647 -0.8562,-0.186 -1.7113,-0.373 -2.568,-0.559 0.6293,-5.582 0.6653,-10.759 2.1352,-16.256 1.4684,-5.489 4.048,-10.411 6.1812,-15.625 0.4872,-1.19 4.7789,0.003 4.734,1.27 -0.1949,5.488 -3.0871,10.841 -4.8586,15.977 -1.7875,5.183 -2.6121,10.66 -5.6097,15.326 -0.3711,0.576 -2.3953,0.066 -2.5684,-0.56 -2.9144,-10.597 -5.8894,-21.267 -9.8262,-31.536 -0.1621,-0.424 1.6813,-0.171 1.8969,0.316 l 0,0" /><path
       inkscape:connector-curvature="0"
       id="path4272"
       style="fill:#515257;fill-opacity:1;fill-rule:nonzero;stroke:none"
       d="m 65.134,264.918 c 1.3269,-0.078 2.6703,0.011 4,-0.02 1.516,-0.036 2.8387,-0.389 4.2836,-0.764 0.3492,-0.089 2.6043,0.456 2.1129,0.879 -1.0184,0.874 -2.966,0.848 -4.2407,0.918 -1.7671,0.096 -3.5804,0 -5.3332,-0.237 -0.2851,-0.037 -1.7902,-0.719 -0.8226,-0.776 l 0,0" /><path
       inkscape:connector-curvature="0"
       id="path4274"
       style="fill:#515257;fill-opacity:1;fill-rule:nonzero;stroke:none"
       d="m 71.9609,287.601 c 1.4938,1.841 3.25,3.261 5.2399,4.542 1.4027,0.901 3.4812,1.725 4.4062,3.168 0.3672,0.572 -1.1097,0.496 -1.2679,0.481 -0.9758,-0.091 -1.9176,-0.393 -2.7754,-0.858 2.0652,1.118 0.4422,0.239 0,0 -0.5262,-0.285 -0.927,-0.551 -1.3836,-0.929 -0.7371,-0.61 -1.3805,-1.297 -2.043,-1.983 -1.4469,-1.501 -2.916,-3.02 -4.0644,-4.767 -0.1481,-0.225 1.58,-0.034 1.8882,0.346 l 0,0" /><path
       inkscape:connector-curvature="0"
       id="path4276"
       style="fill:#515257;fill-opacity:1;fill-rule:nonzero;stroke:none"
       d="m 88.5582,283.24 c -1.2473,-4.733 -1.0734,-9.346 -0.9879,-14.214 0.102,-5.734 -0.1051,-11.519 0.227,-17.24 0.0332,-0.577 4.0937,0.171 4.2246,1.131 1.2945,9.49 1.775,21.678 -1.1778,30.855 -0.1296,0.404 -2.1855,-0.15 -2.2859,-0.532 l 0,0" /><path
       inkscape:connector-curvature="0"
       id="path4278"
       style="fill:#515257;fill-opacity:1;fill-rule:nonzero;stroke:none"
       d="m 94.9602,269.772 c 4.2238,4.607 7.6438,9.827 12.1858,14.152 0.905,0.862 -1.248,0.674 -1.711,0.281 -4.837,-4.107 -8.1573,-9.673 -12.2764,-14.438 -0.5336,-0.62 1.4258,-0.403 1.8016,0.005 l 0,0" /><path
       inkscape:connector-curvature="0"
       id="path4280"
       style="fill:#515257;fill-opacity:1;fill-rule:nonzero;stroke:none"
       d="m 92.8461,269.084 c 2.6336,-6.708 6.3887,-14.014 11.5869,-19.109 0.611,-0.599 4.228,0.344 3.835,1.224 -1.559,3.498 -4.641,6.404 -6.76,9.583 -2.035,3.053 -3.2576,6.825 -6.3088,9.054 -0.3863,0.282 -2.5937,-0.138 -2.3531,-0.752 l 0,0" /><path
       inkscape:connector-curvature="0"
       id="path4282"
       style="fill:#515257;fill-opacity:1;fill-rule:nonzero;stroke:none"
       d="m 113.826,282.846 c -1.489,-5.292 -1.506,-10.531 -1.452,-15.999 0.048,-4.844 -0.458,-10.249 0.505,-15.006 0.187,-0.921 5.707,0.299 5.603,1.503 -0.853,9.898 1.173,20.544 -2.012,30.116 -0.161,0.481 -2.518,-0.168 -2.644,-0.614 l 0,0" /><path
       inkscape:connector-curvature="0"
       id="path4284"
       style="fill:#515257;fill-opacity:1;fill-rule:nonzero;stroke:none"
       d="m 116.078,251.675 c 1.797,0.314 3.473,0.139 5.276,0.09 1.626,-0.045 3.193,0.313 4.827,0.066 0.667,-0.1 2.909,0.871 1.496,1.279 -1.726,0.498 -3.567,0.101 -5.328,0.037 -2.15,-0.082 -4.161,0.286 -6.256,-0.415 -0.88,-0.293 -1.288,-1.281 -0.015,-1.057 l 0,0" /><path
       inkscape:connector-curvature="0"
       id="path4286"
       style="fill:#515257;fill-opacity:1;fill-rule:nonzero;stroke:none"
       d="m 127.163,252.224 c 1.573,0.066 2.56,1.089 3.518,2.219 0.444,0.528 0.836,1.279 0.993,1.946 0.182,0.77 -0.461,1.089 -0.69,1.663 -0.421,1.057 -2.509,0.218 -2.978,-0.388 -0.775,-1.004 -1.555,-1.543 -1.444,-2.937 0.031,-0.4 0.154,-0.87 0.103,-1.261 -0.044,-0.327 -0.248,-0.564 -0.238,-0.892 0.009,-0.282 0.551,-0.358 0.736,-0.35 l 0,0" /><path
       inkscape:connector-curvature="0"
       id="path4288"
       style="fill:#515257;fill-opacity:1;fill-rule:nonzero;stroke:none"
       d="m 135.121,252.623 c 3.994,9.898 8.837,20.793 10.472,31.387 0.115,0.749 -2.285,0.306 -2.378,-0.369 -1.482,-10.758 -6.804,-21.035 -10.057,-31.322 -0.176,-0.555 1.751,-0.219 1.963,0.304 l 0,0" /><path
       inkscape:connector-curvature="0"
       id="path4290"
       style="fill:#515257;fill-opacity:1;fill-rule:nonzero;stroke:none"
       d="m 143.022,282.522 c 0.85,-10.508 3.06,-21.136 7.035,-30.909 0.693,-1.704 6.026,-0.212 5.513,1.477 -3.018,9.923 -5.71,20.68 -10.002,30.113 -0.354,0.778 -2.615,0.165 -2.546,-0.681 l 0,0" /><path
       inkscape:connector-curvature="0"
       id="path4292"
       style="fill:#515257;fill-opacity:1;fill-rule:nonzero;stroke:none"
       d="m 138.684,264.866 c 2.432,-1.051 5.232,-0.438 7.794,-0.352 0.456,0.014 2.36,0.883 1.119,1.123 -2.43,0.471 -4.883,-0.575 -7.301,0.146 -0.486,0.146 -2.446,-0.556 -1.612,-0.917 l 0,0" /><path
       inkscape:connector-curvature="0"
       id="path4294"
       style="fill:#515257;fill-opacity:1;fill-rule:nonzero;stroke:none"
       d="m 162.119,282.636 c -2.216,-10.112 -1.538,-21.035 -1.481,-31.344 0.043,-0.021 0.085,-0.041 0.127,-0.061 2.11,-0.632 5.515,0.351 5.684,2.752 0.665,9.469 0.833,20.168 -1.753,29.344 -0.05,0.178 -2.501,-0.346 -2.577,-0.691 l 0,0" /><path
       inkscape:connector-curvature="0"
       id="path4296"
       style="fill:#515257;fill-opacity:1;fill-rule:nonzero;stroke:none"
       d="m 187.865,283.075 c -0.532,-11.097 -0.672,-22.223 -1.402,-33.313 -0.052,-0.802 2.335,-0.288 2.38,0.368 0.751,11.08 1.435,22.373 0.999,33.476 -0.019,0.499 -1.947,0.095 -1.977,-0.531 l 0,0" /><path
       inkscape:connector-curvature="0"
       id="path4298"
       style="fill:#515257;fill-opacity:1;fill-rule:nonzero;stroke:none"
       d="m 207.955,255.613 c 0.556,9.348 0.086,18.813 0.395,28.185 -0.001,-0.027 -2.467,-0.21 -2.517,-0.676 -0.992,-9.192 -0.484,-18.823 0.175,-28.032 0.002,-0.037 1.928,0.207 1.947,0.523 l 0,0" /><path
       inkscape:connector-curvature="0"
       id="path4300"
       style="fill:#515257;fill-opacity:1;fill-rule:nonzero;stroke:none"
       d="m 215.881,282.762 c -1.354,-5.884 -0.914,-12.195 -0.99,-18.208 -0.041,-3.193 -1.399,-9.365 0.006,-12.264 1.46,0.427 2.922,0.854 4.382,1.279 -1.444,0.291 -3.165,-0.309 -4.329,-1.16 0.404,0.295 3.84,-0.339 4.436,1.085 1.413,3.375 0.264,8.743 0.181,12.313 -0.135,5.772 0.317,12.024 -1.169,17.631 -0.074,0.279 -2.426,-0.282 -2.517,-0.676 l 0,0" /><path
       inkscape:connector-curvature="0"
       id="path4302"
       style="fill:#515257;fill-opacity:1;fill-rule:nonzero;stroke:none"
       d="m 218.227,287.228 c 1.886,1.402 3.527,3.069 5.294,4.614 0.896,0.783 4.803,2.958 3.681,4.345 -0.4,0.492 -1.704,0.046 -2.146,-0.104 -1.118,-0.383 -2.117,-0.854 -2.903,-1.753 -0.6,-0.685 -0.994,-1.658 -1.494,-2.417 -1.141,-1.733 -2.529,-3.273 -4.082,-4.645 -0.525,-0.463 1.336,-0.275 1.65,-0.04 l 0,0" /><path
       inkscape:connector-curvature="0"
       id="path4304"
       style="fill:#515257;fill-opacity:1;fill-rule:nonzero;stroke:none"
       d="m 257.426,279.036 c -1.611,4.468 -4.54,7.372 -9.661,5.834 -4.296,-1.287 -8.575,-3.392 -7.925,-8.498 0.694,-5.459 8.119,-8.701 11.686,-11.925 1.333,-1.203 2.272,-2.793 3.113,-4.35 2.873,-5.324 -7.991,-9.159 -10.151,-3.506 -1.155,3.019 -0.642,5.372 -3.454,7.337 -0.742,0.518 -2.682,0.022 -3.053,-0.819 -3.984,-9.017 10.394,-15.154 16.77,-9.258 4.143,3.831 6.86,8.655 1.781,12.763 -2.06,1.667 -4.637,2.655 -7.063,3.647 -1.769,0.725 -3.15,1.898 -4.447,3.268 -0.953,1.066 -1.642,2.292 -2.066,3.677 6.228,6.301 10.402,6.737 12.523,1.311 0.354,-0.64 2.207,-0.197 1.947,0.519 l 0,0" /><path
       inkscape:connector-curvature="0"
       id="path4306"
       style="fill:#515257;fill-opacity:1;fill-rule:nonzero;stroke:none"
       d="m 243.03,294.491 c 0.675,-1.177 1.405,-2.321 2.125,-3.471 0.818,-1.308 0.715,-3.039 1.175,-4.464 0.475,-1.471 5.879,-0.041 5.612,1.502 -0.02,0.115 -0.648,1.781 -0.778,1.458 0.333,0.823 1.04,1.546 1.615,2.212 0.846,0.98 1.952,1.771 2.662,2.855 0.358,0.545 -1.864,0.052 -2.091,-0.106 -1.465,-1.02 -2.734,-2.423 -3.86,-3.798 -0.18,-0.219 -1.119,-2.074 -1.237,-2.123 -0.947,-0.388 -1.49,-0.766 -1.897,-1.7 1.804,0.483 3.608,0.968 5.413,1.451 -1.063,1.158 -2.429,1.965 -3.612,2.995 -1.245,1.086 -2.243,2.483 -3.24,3.799 -0.294,0.387 -2.1,-0.238 -1.887,-0.61 l 0,0" /><path
       inkscape:connector-curvature="0"
       id="path4308"
       style="fill:#515257;fill-opacity:1;fill-rule:nonzero;stroke:none"
       d="m 271.004,269.259 c 4.402,4.387 8.574,9.241 12.173,14.306 0.654,0.921 -1.876,0.695 -2.339,0.036 -3.512,-5.012 -7.942,-9.258 -11.543,-14.177 -0.543,-0.74 1.379,-0.494 1.709,-0.165 l 0,0" /><path
       inkscape:connector-curvature="0"
       id="path4310"
       style="fill:#515257;fill-opacity:1;fill-rule:nonzero;stroke:none"
       d="m 317.854,251.776 c 1.798,-0.669 3.668,-0.97 5.581,-0.854 2.11,0.129 4.274,0.197 6.366,0.447 0.303,0.037 2.464,0.699 1.757,1.331 -1.167,1.042 -3.385,0.495 -4.801,0.321 -2.584,-0.322 -5.048,-0.156 -7.625,-0.277 -0.246,-0.012 -2.131,-0.651 -1.278,-0.968 l 0,0" /><path
       inkscape:connector-curvature="0"
       id="path4312"
       style="fill:#515257;fill-opacity:1;fill-rule:nonzero;stroke:none"
       d="m 331.473,252.19 c 2.167,2.386 3.06,5.963 2.269,9.091 -0.204,0.808 -2.685,-0.228 -2.977,-0.661 -1.493,-2.224 -3.409,-6.456 -1.284,-8.878 0.339,-0.386 1.723,0.151 1.992,0.448 l 0,0" /><path
       inkscape:connector-curvature="0"
       id="path4314"
       style="fill:#515257;fill-opacity:1;fill-rule:nonzero;stroke:none"
       d="m 337.071,252.379 c 2.513,11.014 7.53,22.064 11.161,32.776 0.124,0.368 -3.323,0.084 -3.582,-0.737 -1.865,-5.908 -3.616,-11.858 -5.491,-17.783 -1.566,-4.946 -3.677,-9.57 -4.096,-14.792 -0.012,-0.144 1.901,0.071 2.008,0.536 l 0,0" /><path
       inkscape:connector-curvature="0"
       id="path4316"
       style="fill:#515257;fill-opacity:1;fill-rule:nonzero;stroke:none"
       d="m 339.676,265.288 c 0.682,-0.695 2.615,-0.562 3.505,-0.659 0.798,-0.088 1.586,-0.217 2.358,-0.441 0.667,-0.196 1.02,-0.582 1.74,-0.655 0.69,-0.069 1.894,0.215 2.3,0.832 0.045,0.067 0.088,0.134 0.131,0.2 0.055,0.119 0.029,0.217 -0.078,0.291 -1.05,0.761 -2.466,0.87 -3.716,1.002 -1.446,0.154 -2.958,0.317 -4.41,0.31 -0.241,-0.001 -2.315,-0.386 -1.83,-0.88 l 0,0" /><path
       inkscape:connector-curvature="0"
       id="path4318"
       style="fill:#515257;fill-opacity:1;fill-rule:nonzero;stroke:none"
       d="m 163.33,283.117 c 7.53,0.393 13.074,-3.118 14.753,-10.555 0.775,-3.442 0.292,-7.043 -0.387,-10.449 -1.296,-6.495 -5.231,-9.653 -12.111,-9.408 -0.651,0.023 -3.132,-1.055 -3.089,-1.067 8.671,-2.876 17.692,3.17 19.502,11.627 2.573,12.03 -5.58,21.329 -17.374,20.444 -0.287,-0.021 -2.133,-0.637 -1.294,-0.592 l 0,0" /><path
       inkscape:connector-curvature="0"
       id="path4320"
       style="fill:#515257;fill-opacity:1;fill-rule:nonzero;stroke:none"
       d="m 188.939,283.622 c 6.153,-10.534 10.513,-21.879 16.476,-32.456 0.5,-0.888 3.809,0.146 3.475,0.931 -4.588,10.8 -9.217,23.823 -17.628,32.272 -0.397,0.4 -2.601,-0.27 -2.323,-0.747 l 0,0" /><path
       inkscape:connector-curvature="0"
       id="path4322"
       style="fill:#515257;fill-opacity:1;fill-rule:nonzero;stroke:none"
       d="m 268.49,268.642 c 1.125,-3.288 3.645,-6.854 5.752,-9.663 1.258,-1.674 2.673,-3.228 3.976,-4.867 1.131,-1.423 1.692,-3.466 3.186,-4.469 0.738,-0.496 2.725,-0.01 3.092,0.828 1.148,2.624 -3.486,6.638 -5.057,8.428 -2.89,3.291 -5.085,8.059 -8.83,10.428 -0.369,0.234 -2.341,-0.038 -2.119,-0.685 l 0,0" /><path
       inkscape:connector-curvature="0"
       id="path4324"
       style="fill:#515257;fill-opacity:1;fill-rule:nonzero;stroke:none"
       d="m 264.952,283.388 c -0.656,-5.553 0.301,-11.065 0.467,-16.627 0.145,-4.879 -0.318,-9.726 -0.231,-14.56 0.02,-1.035 3.314,0.155 3.64,0.78 1.977,3.794 0.949,9.13 0.669,13.237 -0.408,5.951 -1.247,11.801 -2.01,17.712 -0.082,0.636 -2.464,0.058 -2.535,-0.542 l 0,0" /><path
       inkscape:connector-curvature="0"
       id="path4326"
       style="fill:#515257;fill-opacity:1;fill-rule:nonzero;stroke:none"
       d="m 297.947,284.467 c -6.515,-1.871 -10.459,-6.804 -12.121,-13.3 -1.873,-7.315 1.252,-17.954 9.713,-19.111 6.682,-0.913 11.421,4.927 13.245,10.49 1.693,5.162 0.878,12.335 -0.954,17.369 -1.633,4.482 -5.158,5.492 -9.539,4.996 -0.382,-0.044 -2.696,-0.839 -2.108,-0.888 5.34,-0.435 7.659,-9.066 8.699,-13.291 1.31,-5.328 -0.621,-20.706 -9.118,-16.247 -10.355,5.436 -7.99,26.099 2.528,29.713 1.089,0.375 0.388,0.479 -0.345,0.269 l 0,0" /><path
       inkscape:connector-curvature="0"
       id="path4328"
       style="fill:#515257;fill-opacity:1;fill-rule:nonzero;stroke:none"
       d="m 316.182,283.047 c -0.591,-5.688 -1.065,-11.368 -1.211,-17.084 -0.08,-3.171 -1.515,-11.538 1.029,-14.002 0.607,-0.587 2.361,0.042 2.805,0.596 1.805,2.256 0.665,7.115 0.595,9.787 -0.187,7.099 -0.035,14.144 -0.74,21.224 -0.065,0.655 -2.413,0.104 -2.478,-0.521 l 0,0" /><path
       inkscape:connector-curvature="0"
       id="path4330"
       style="fill:#515257;fill-opacity:1;fill-rule:nonzero;stroke:none"
       d="m 345.143,282.967 c 0.069,-6.638 2.064,-13.264 3.916,-19.589 0.901,-3.079 1.645,-10.922 4.618,-12.609 0.718,-0.41 2.489,0.206 2.977,0.795 2.138,2.585 -1.745,10.172 -2.628,13.144 -1.882,6.333 -3.943,12.866 -6.874,18.796 -0.196,0.393 -2.013,-0.099 -2.009,-0.537 l 0,0" /><path
       inkscape:connector-curvature="0"
       id="path4414"
       style="fill:#515257;fill-opacity:1;fill-rule:nonzero;stroke:none"
       d="m 579.098,253.002 c 1.423,6.135 4.246,11.647 6.376,17.537 2.041,5.643 3.883,11.359 5.886,17.002 -0.121,-0.34 -3.316,-0.065 -3.616,-0.969 -1.875,-5.621 -3.683,-11.23 -5.483,-16.894 -1.824,-5.746 -4.584,-11.14 -5.148,-17.206 0.003,0.034 1.894,0.132 1.985,0.53 l 0,0" /><path
       inkscape:connector-curvature="0"
       id="path4416"
       style="fill:#515257;fill-opacity:1;fill-rule:nonzero;stroke:none"
       d="m 582.21,266.607 c 0.855,-0.71 2.813,-0.554 3.852,-0.661 0.781,-0.08 1.558,-0.202 2.322,-0.382 0.715,-0.165 1.239,-0.653 1.949,-0.746 0.681,-0.088 2.143,0.09 2.518,0.784 0.039,0.069 0.077,0.139 0.114,0.208 0.056,0.112 0.033,0.201 -0.072,0.269 -1.15,0.798 -2.68,0.897 -4.031,1.034 -1.59,0.164 -3.237,0.324 -4.834,0.343 -0.22,0.002 -2.289,-0.457 -1.818,-0.849 l 0,0" /><path
       inkscape:connector-curvature="0"
       id="path4418"
       style="fill:#515257;fill-opacity:1;fill-rule:nonzero;stroke:none"
       d="m 588.235,285.162 c 0.239,-6.989 2.443,-13.913 4.488,-20.553 1.035,-3.364 1.863,-11.663 5.205,-13.49 0.824,-0.449 2.074,0.079 2.637,0.707 2.331,2.602 -1.319,8.868 -2.22,11.822 -2.262,7.431 -4.695,15.065 -8.126,22.044 -0.332,0.677 -2.011,0.206 -1.984,-0.53 l 0,0" /><path
       inkscape:connector-curvature="0"
       id="path4420"
       style="fill:#515257;fill-opacity:1;fill-rule:nonzero;stroke:none"
       d="m 432.859,283.833 c -2.177,-3.123 -1.209,-7.231 -1.45,-10.836 -0.409,-6.128 0.108,-12.014 0.232,-18.088 0.026,-1.202 4.901,-0.22 5.043,1.072 -0.527,-0.387 -1.058,-0.773 -1.584,-1.159 0.407,0.177 1.522,0.585 1.584,1.159 0.51,4.609 -0.15,9.429 -0.073,14.066 0.077,4.828 0.169,9.51 -0.856,14.245 -0.188,0.867 -2.588,-0.017 -2.896,-0.459 l 0,0" /><path
       inkscape:connector-curvature="0"
       id="path4422"
       style="fill:#515257;fill-opacity:1;fill-rule:nonzero;stroke:none"
       d="m 433.687,254.139 c 4.248,-0.999 8.854,0.628 13.031,-0.897 0.424,-0.155 3.129,0.33 2.892,1.03 -0.444,1.298 -4.401,0.961 -5.41,0.968 -3.022,0.021 -6.16,0.141 -9.152,-0.265 -0.183,-0.027 -2.101,-0.662 -1.361,-0.836 l 0,0" /><path
       inkscape:connector-curvature="0"
       id="path4424"
       style="fill:#515257;fill-opacity:1;fill-rule:nonzero;stroke:none"
       d="m 449.308,254.323 c 0.773,1.126 1.143,2.583 1.683,3.846 0.201,0.474 0.431,0.961 0.495,1.479 0.095,0.772 -0.535,1.091 -0.77,1.778 -0.243,0.706 -2.851,-0.223 -3.117,-0.71 -0.45,-0.825 -1.237,-1.417 -1.554,-2.309 -0.156,-0.442 -0.207,-0.958 -0.251,-1.422 -0.114,-1.193 0.082,-2.506 0.998,-3.336 0.469,-0.424 2.207,0.226 2.516,0.674 l 0,0" /><path
       inkscape:connector-curvature="0"
       id="path4426"
       style="fill:#515257;fill-opacity:1;fill-rule:nonzero;stroke:none"
       d="m 454.661,283.417 c -1.501,-8.27 -5.599,-34.095 9.82,-30.782 3.758,0.806 6.288,3.063 7.586,6.78 2.516,7.205 3.558,16.624 2.352,24.145 -0.051,0.32 -2.694,-0.269 -2.816,-0.754 -0.679,-2.705 -1.162,-29.666 -6.609,-28.456 -4.966,1.104 -6.066,10.122 -6.402,13.984 -0.455,5.22 -0.05,10.685 -1.294,15.79 -0.079,0.326 -2.555,-0.26 -2.637,-0.707 l 0,0" /><path
       inkscape:connector-curvature="0"
       id="path4428"
       style="fill:#515257;fill-opacity:1;fill-rule:nonzero;stroke:none"
       d="m 476.978,282.937 c 5.846,0.522 12.084,0.789 17.92,0.343 0.575,-0.045 2.306,0.777 2.404,0.744 -3.006,0.97 -6.714,0.623 -9.842,0.623 -3.311,0 -6.476,-0.291 -9.673,-1.167 -0.228,-0.064 -1.839,-0.636 -0.809,-0.543 l 0,0" /><path
       inkscape:connector-curvature="0"
       id="path4430"
       style="fill:#515257;fill-opacity:1;fill-rule:nonzero;stroke:none"
       d="m 477.211,282.98 c 0.005,-0.002 0.01,-0.002 0.017,-0.004 -0.12,0.059 -0.238,0.119 -0.358,0.177 0.017,-0.046 0.014,0.006 -0.009,-0.095 0.141,0.12 0.284,0.241 0.427,0.363 -0.801,-0.402 -0.767,-1.198 -0.873,-2.005 -0.106,-0.802 -0.273,-1.448 0.078,-2.199 0.332,-0.715 2.164,0.053 2.448,0.527 0.654,1.087 0.599,2.537 0.24,3.733 -0.079,0.265 -0.534,0.228 -0.73,0.229 -0.031,0 -0.062,0.002 -0.091,0.002 0.204,-0.065 0.411,-0.13 0.617,-0.194 -0.218,0.372 -0.551,0.402 -0.974,0.317 -0.296,-0.059 -1.795,-0.695 -0.792,-0.851 l 0,0" /><path
       inkscape:connector-curvature="0"
       id="path4432"
       style="fill:#515257;fill-opacity:1;fill-rule:nonzero;stroke:none"
       d="m 494.891,283.71 c -0.399,-0.864 -0.56,-1.862 -0.148,-2.739 0.115,-0.247 2.337,0.392 2.49,0.668 0.505,0.901 0.779,1.933 -0.149,2.659 -0.259,0.203 -2.055,-0.291 -2.193,-0.588 l 0,0" /><path
       inkscape:connector-curvature="0"
       id="path4434"
       style="fill:#515257;fill-opacity:1;fill-rule:nonzero;stroke:none"
       d="m 483.461,253.047 c 0.816,0.108 1.645,0.22 2.468,0.148 0.964,-0.083 1.598,-0.729 2.463,-1.049 0.551,-0.206 2.199,0.078 2.198,0.855 0,1.162 -1.981,1.47 -2.851,1.561 -1.414,0.148 -2.844,-0.112 -4.214,-0.449 -1.083,-0.268 -1.51,-1.259 -0.064,-1.066 l 0,0" /><path
       inkscape:connector-curvature="0"
       id="path4436"
       style="fill:#515257;fill-opacity:1;fill-rule:nonzero;stroke:none"
       d="m 502.177,283.419 c -0.422,-6.443 -0.517,-12.915 -0.638,-19.371 -0.033,-1.685 -1.186,-10.941 0.569,-12.052 0.6,-0.38 2.189,0.205 2.602,0.697 1.34,1.598 0.016,7.919 -0.006,9.797 -0.083,7.213 0.521,14.427 0.11,21.635 -0.022,0.397 -2.596,-0.056 -2.637,-0.706 l 0,0" /><path
       inkscape:connector-curvature="0"
       id="path4438"
       style="fill:#515257;fill-opacity:1;fill-rule:nonzero;stroke:none"
       d="m 518.65,283.71 c -1.411,-2.537 -1.567,-7.302 -1.676,-10.215 -0.148,-4.011 -0.213,-8.026 -0.292,-12.036 -0.059,-2.939 -0.765,-6.579 0.937,-9.09 0.339,-0.503 4.766,0.699 4.92,1.318 1.602,6.419 0.53,14.753 0.202,21.352 -0.119,2.417 0.583,8.109 -1.946,9.284 -0.341,0.159 -1.962,-0.281 -2.145,-0.613 l 0,0" /><path
       inkscape:connector-curvature="0"
       id="path4440"
       style="fill:#515257;fill-opacity:1;fill-rule:nonzero;stroke:none"
       d="m 503.662,269.509 c 2.263,-0.269 4.531,0.169 6.804,0.124 2.048,-0.04 3.873,-0.342 5.826,-0.872 0.473,-0.128 3.336,0.196 2.954,1.13 -0.582,1.422 -4.12,1.19 -5.334,1.231 -3.05,0.106 -6,-0.325 -9.036,-0.539 -0.407,-0.029 -2.479,-0.924 -1.214,-1.074 l 0,0" /><path
       inkscape:connector-curvature="0"
       id="path4442"
       style="fill:#515257;fill-opacity:1;fill-rule:nonzero;stroke:none"
       d="m 532.115,283.276 c 2.145,-0.382 4.604,0.129 6.791,0.098 1.904,-0.026 5.899,0.195 6.7,-2.051 0.32,-0.898 2.101,-0.347 2.442,0.277 2.327,4.258 -13.591,4.31 -15.967,2.65 -0.379,-0.266 -0.614,-0.858 0.034,-0.974 l 0,0" /><path
       inkscape:connector-curvature="0"
       id="path4444"
       style="fill:#515257;fill-opacity:1;fill-rule:nonzero;stroke:none"
       d="m 532.832,269.2 c 1.56,-0.421 3.245,-0.229 4.841,-0.153 1.776,0.083 3.537,0.202 5.221,0.804 0.221,0.08 1.449,0.848 0.618,1.024 -1.374,0.289 -2.774,0.016 -4.159,-0.143 -1.8,-0.206 -3.623,-0.203 -5.407,-0.532 -0.185,-0.033 -1.991,-0.763 -1.114,-1 l 0,0" /><path
       inkscape:connector-curvature="0"
       id="path4446"
       style="fill:#515257;fill-opacity:1;fill-rule:nonzero;stroke:none"
       d="m 532.974,253.928 c 4.49,-1.839 11.327,-1.901 15.86,-0.017 2.732,1.136 0.262,2.921 -1.759,2 -3.928,-1.788 -9.056,-0.702 -13.197,-0.872 -0.341,-0.014 -1.73,-0.774 -0.904,-1.111 l 0,0" /><path
       inkscape:connector-curvature="0"
       id="path4448"
       style="fill:#515257;fill-opacity:1;fill-rule:nonzero;stroke:none"
       d="m 556.443,283.015 c -1.436,-5.835 -1.29,-12.053 -1.503,-18.036 -0.09,-2.527 -1.425,-9.295 0.667,-11.272 0.981,-0.926 2.89,-0.244 3.604,0.693 1.896,2.49 0.795,8.201 0.848,11.149 0.108,5.931 0.904,12.238 -0.588,18.04 -0.301,1.178 -2.806,0.332 -3.028,-0.574 l 0,0" /><path
       inkscape:connector-curvature="0"
       id="path4450"
       style="fill:#515257;fill-opacity:1;fill-rule:nonzero;stroke:none"
       d="m 558.744,283.662 c 4.18,-0.351 8.714,-1.124 10.067,-5.818 0.545,-1.896 -2.533,-5.378 -4.06,-6.388 0.739,0.188 0.666,0.167 -0.219,-0.06 -0.626,-0.182 -1.251,-0.368 -1.878,-0.555 -0.873,-0.26 -1.733,-0.595 -2.559,-0.98 -0.02,-0.01 -1.376,-0.672 -0.723,-0.842 2.698,-0.704 6.458,0.842 8.98,1.688 2.076,0.697 7.398,2.451 7.544,5.316 0.071,1.364 -0.952,2.833 -1.492,4.09 -0.555,1.295 -1.622,2.214 -2.739,3.005 -3.124,2.211 -7.757,1.639 -11.309,1.227 -0.289,-0.035 -2.07,-0.645 -1.612,-0.683 l 0,0" /><path
       inkscape:connector-curvature="0"
       id="path4452"
       style="fill:#515257;fill-opacity:1;fill-rule:nonzero;stroke:none"
       d="m 485.766,283.941 c -1.075,-9.814 -1.112,-20.531 -0.438,-30.374 0.061,-0.92 4.072,-0.058 4.148,1.114 0.65,9.856 -0.105,19.982 -1.411,29.762 -0.07,0.528 -2.243,0.013 -2.299,-0.502 l 0,0" /><path
       inkscape:connector-curvature="0"
       id="path4454"
       style="fill:#515257;fill-opacity:1;fill-rule:nonzero;stroke:none"
       d="m 530.551,283.65 c 0.711,-10.139 -0.957,-20.35 0.382,-30.432 0.185,-1.404 4.089,-0.442 4.18,0.818 0.351,4.903 -0.12,9.904 -0.009,14.838 0.119,5.197 -0.149,10.577 -2.241,15.397 -0.348,0.8 -2.372,0.232 -2.312,-0.621 l 0,0" /><path
       inkscape:connector-curvature="0"
       id="path4456"
       style="fill:#515257;fill-opacity:1;fill-rule:nonzero;stroke:none"
       d="m 560.763,269.269 c 2.671,-5.654 5.673,-12.44 9.782,-17.188 0.669,-0.773 3.705,0.014 3.138,1.101 -1.348,2.579 -3.053,4.974 -4.515,7.497 -1.854,3.206 -3.535,6.521 -5.695,9.539 -0.536,0.752 -3.153,-0.012 -2.71,-0.949 l 0,0" /><path
       inkscape:connector-curvature="0"
       id="path4458"
       style="fill:#515257;fill-opacity:1;fill-rule:nonzero;stroke:none"
       d="m 377.974,283.068 c -0.233,-10.129 0.222,-20.263 0.247,-30.393 10e-4,-1.042 2.406,-0.538 2.404,0.284 -0.036,10.172 -0.25,20.349 -0.546,30.516 -0.018,0.69 -2.09,0.278 -2.105,-0.407 l 0,0" /><path
       inkscape:connector-curvature="0"
       id="path4460"
       style="fill:#515257;fill-opacity:1;fill-rule:nonzero;stroke:none"
       d="m 378.678,283.231 c 1.705,-4.783 3.581,-9.504 5.215,-14.311 1.806,-5.314 2.531,-11.47 5.405,-16.295 0.464,-0.779 2.773,-0.336 2.902,0.584 0.691,4.912 -1.515,10.188 -3.058,14.819 -1.904,5.711 -4.441,11.133 -7.886,16.068 -0.423,0.609 -2.86,-0.07 -2.578,-0.865 l 0,0" /><path
       inkscape:connector-curvature="0"
       id="path4462"
       style="fill:#515257;fill-opacity:1;fill-rule:nonzero;stroke:none"
       d="m 391.715,255.502 c 1.286,10.036 5.493,19.605 9.42,28.823 0.33,0.771 -1.913,0.417 -2.229,-0.121 -4.808,-8.167 -8.822,-19.441 -9.118,-28.945 -0.025,-0.796 1.846,-0.395 1.927,0.243 l 0,0" /><path
       inkscape:connector-curvature="0"
       id="path4464"
       style="fill:#515257;fill-opacity:1;fill-rule:nonzero;stroke:none"
       d="m 400.358,283.63 c -0.95,-10.187 -1.251,-20.755 -0.962,-30.984 0.027,-1.01 5.647,-0.069 5.689,1.525 0.276,9.893 0.145,20.491 -2.09,30.166 -0.14,0.608 -2.578,-0.071 -2.637,-0.707 l 0,0" /><path
       inkscape:connector-curvature="0"
       id="path4466"
       style="fill:#fcd493;fill-opacity:1;fill-rule:nonzero;stroke:none"
       d="m 253.937,470.879 78.154,0.091 5.219,-0.146 11.771,-0.089 12.826,0.757 8.751,0.101 10.809,-1.304 -1.009,-86.88 0.017,-42.131 1.875,-29.443 -57.733,0.266 -71.27,-1.444 0.185,53.567 -0.147,5.522 0.147,50.106 -0.111,45.062 0.516,5.965" /><path
       inkscape:connector-curvature="0"
       id="path4468"
       style="fill:#b6242a;fill-opacity:1;fill-rule:nonzero;stroke:none"
       d="m 327.04,464.459 c -1.369,0.088 -6.386,-0.032 -12.429,0 -6.044,0.032 -20.355,0.082 -24.174,0.025 -3.82,-0.056 -15.451,0 -15.451,0 -4.106,0.171 -9.352,0.399 -11.119,0.512 -1.767,0.115 -3.198,0.344 -4.62,0.571 0.344,-0.912 0.741,-1.881 0.627,-4.446 3.193,0.284 8.952,0.228 12.828,0.113 3.878,-0.113 5.639,-0.363 9.008,-0.455 7.978,-0.22 7.186,0.056 12.26,0 5.073,-0.058 10.833,0.342 12.316,0.342 1.482,0 7.812,-0.229 9.693,-0.4 0.799,-1.425 1.197,-2.451 1.653,-4.048 0.456,-1.597 0.514,-4.219 0.455,-7.183 0.116,1.597 0.892,5.201 1.541,6.158 1.441,2.12 2.982,3.727 4.579,4.81 1.597,1.083 3.802,1.746 4.601,2.259 0.798,0.513 0.855,1.14 0.969,1.737 -0.912,0.083 -1.368,-0.083 -2.737,0.005" /><path
       inkscape:connector-curvature="0"
       id="path4470"
       style="fill:#b6242a;fill-opacity:1;fill-rule:nonzero;stroke:none"
       d="m 265.917,458.725 c -1.253,0.115 -4.047,0.058 -4.047,0.058 0,0 0,0 0.512,-0.286 0.514,-0.284 2.225,-0.227 3.194,-0.227 0.969,0 4.162,-0.741 5.815,-0.343 1.653,0.399 1.426,0.627 1.311,0.856 -2.452,-0.4 -5.531,-0.171 -6.785,-0.058" /><path
       inkscape:connector-curvature="0"
       id="path4472"
       style="fill:#b6242a;fill-opacity:1;fill-rule:nonzero;stroke:none"
       d="m 326.019,457.71 c 0.306,0.436 1.003,1.148 1.439,1.661 0.437,0.515 1.134,0.476 2.006,0.951 -0.829,0 -1.613,-0.277 -2.354,-0.673 -0.741,-0.395 -1.788,-1.345 -2.225,-1.82 -0.435,-0.474 -0.915,-2.294 -0.915,-2.294 0.654,0.831 1.744,1.74 2.049,2.175" /><path
       inkscape:connector-curvature="0"
       id="path4474"
       style="fill:#b6242a;fill-opacity:1;fill-rule:nonzero;stroke:none"
       d="m 375.458,464.199 c -0.228,0.172 -2.291,-0.342 -3.603,-0.512 -1.311,-0.172 -3.246,-0.192 -4.276,-0.115 -1.409,0.105 -3.491,0.094 -3.491,0.094 3.342,-0.668 4.003,-1.348 5.487,-2.317 1.482,-0.97 3.961,-3.902 4.986,-4.7 1.028,-0.798 1.084,-0.57 1.141,-0.228 0.055,0.343 0.39,2.481 0.162,3.565 -0.228,1.084 -0.324,2.428 -0.324,2.998 0,0.57 0.147,1.045 -0.082,1.215" /><path
       inkscape:connector-curvature="0"
       id="path4476"
       style="fill:#b6242a;fill-opacity:1;fill-rule:nonzero;stroke:none"
       d="m 366.407,457.695 c 0.913,-0.184 3.387,-0.941 3.769,-1.078 0.381,-0.138 0.456,0.046 0.456,0.046 0,0 -0.38,0.435 -1.333,0.733 -0.951,0.299 -3.046,0.734 -3.959,0.918 -0.914,0.183 -3.465,0.619 -4.112,0.641 -0.324,0.012 -0.715,-0.048 -0.715,-0.048 0,0 0.162,-0.134 0.943,-0.272 0.497,-0.088 1.104,-0.115 1.752,-0.253 0.647,-0.137 2.285,-0.504 3.199,-0.687" /><path
       inkscape:connector-curvature="0"
       id="path4478"
       style="fill:#b6242a;fill-opacity:1;fill-rule:nonzero;stroke:none"
       d="m 376.013,418.194 c -0.256,1.451 -0.545,6.27 -0.759,8.317 -0.213,2.047 -0.033,4.734 -0.204,6.824 -0.17,2.09 -0.477,5.46 -0.307,7.251 0.171,1.791 0.118,5.887 0.417,7.593 0,0 -2.645,-3.37 -4.18,-5.417 -1.535,-2.048 -3.113,-3.626 -3.668,-4.18 -0.555,-0.555 -1.322,-1.493 -2.389,-1.834 -1.066,-0.341 -1.493,-0.896 -4.563,0.384 -3.071,1.279 -6.102,2.985 -8.062,3.54 -1.963,0.554 -3.542,1.321 -5.077,1.621 -1.536,0.298 -2.431,0.212 -3.199,0.085 -0.769,-0.128 -1.407,-0.427 -1.749,-0.385 -0.341,0.043 -0.512,-0.554 0.128,-0.98 0.64,-0.426 1.066,-0.811 2.176,-1.195 1.108,-0.383 1.962,-0.512 2.985,-0.938 1.024,-0.426 4.564,-2.218 5.802,-2.943 1.236,-0.724 3.54,-1.535 5.673,-2.644 2.131,-1.108 4.649,-2.559 5.8,-3.157 1.153,-0.597 3.371,-1.535 4.266,-2.175 0.897,-0.64 2.602,-2.218 3.284,-3.37 0.683,-1.152 1.62,-2.516 1.962,-3.369 0.342,-0.853 0.513,-1.408 0.94,-2.517 0.426,-1.109 0.724,-1.572 0.916,-2.751 0.125,-0.775 0.414,-0.767 0.562,-2.372 -0.135,1.873 -0.306,2.363 -0.392,2.703 -0.084,0.342 -0.107,0.459 -0.362,1.909" /><path
       inkscape:connector-curvature="0"
       id="path4480"
       style="fill:#b6242a;fill-opacity:1;fill-rule:nonzero;stroke:none"
       d="m 292.316,417.114 c 0.366,0.438 0.916,0.939 1.26,1.258 0.344,0.318 0.786,0.766 1.108,1.236 0.323,0.47 0.889,0.858 1.244,1.372 0.357,0.514 0.369,0.979 0.369,0.979 0,0 -0.429,-0.252 -0.986,-0.716 -0.556,-0.463 -1.131,-1.356 -1.834,-2.148 -0.705,-0.795 -1.827,-1.647 -2.247,-1.975 -0.419,-0.328 -0.79,-0.728 -1.169,-1.361 -0.377,-0.633 -1.039,-1.459 -1.039,-1.459 0,0 1.27,0.909 1.689,1.239 0.419,0.328 1.239,1.138 1.605,1.575" /><path
       inkscape:connector-curvature="0"
       id="path4482"
       style="fill:#b6242a;fill-opacity:1;fill-rule:nonzero;stroke:none"
       d="m 311.657,431.286 c -0.365,-0.427 -0.727,-0.897 -1.112,-1.304 -0.384,-0.406 -0.726,-0.834 -1.068,-1.154 -0.342,-0.321 -0.811,-0.897 -0.983,-0.94 -0.17,-0.043 -0.278,0.106 -0.278,0.363 0,0 0.685,0.791 1.561,1.582 0.875,0.79 1.304,1.196 1.602,1.538 0.299,0.342 0.428,0.534 0.706,0.705 0.278,0.171 -0.065,-0.363 -0.428,-0.79 z m 14.597,-7.288 c 0,0 0.171,-0.342 0.578,-0.469 0.405,-0.129 0.833,-0.322 1.046,-0.408 0.128,-0.085 0.042,-0.341 -0.256,-0.299 -0.299,0.043 -0.449,0.257 -0.877,0.407 -0.426,0.149 -0.62,0.171 -0.491,0.769 z m -9.532,-17.441 c 0.822,0.822 1.25,2.038 1.743,2.796 0.493,0.756 0.757,1.183 1.579,2.039 0.823,0.854 2.139,2.072 3.191,3.059 1.053,0.986 3.387,2.927 4.538,3.815 1.151,0.888 1.678,0.197 2.269,-0.098 0.592,-0.297 2.434,-1.645 3.75,-2.237 1.315,-0.592 3.684,-1.48 5.329,-2.04 1.644,-0.558 3.026,-1.216 5.196,-1.677 2.171,-0.46 3.683,-0.23 5.065,0.165 1.382,0.394 1.348,1.051 1.283,1.414 -0.066,0.362 -0.559,1.151 -0.855,1.578 -0.296,0.429 -1.81,1.546 -2.501,1.81 -0.689,0.262 -2.694,0.756 -5.161,1.414 -2.468,0.658 -5.493,2.105 -7.664,2.96 -2.17,0.856 -5.505,2.007 -8.191,3.849 -5.032,3.453 -5.776,5.164 -7.267,7.173 -1.49,2.01 -2.917,5.186 -3.436,7.325 -0.518,2.138 -1.166,5.445 -1.166,5.445 0,0 -0.334,-0.538 -0.267,-1.065 0.066,-0.525 -0.067,-1.216 -0.099,-1.644 -0.033,-0.428 -0.033,-0.789 0,-1.053 0.032,-0.263 0.165,-0.295 0.23,-0.756 0.066,-0.46 0.034,-0.757 0.099,-1.249 0.066,-0.493 0.164,-1.218 0.591,-2.007 0.429,-0.79 -0.131,-0.79 -0.591,-1.118 -0.46,-0.33 -1.547,-1.415 -2.599,-2.27 -1.052,-0.855 -1.578,-1.513 -2.663,-2.532 -1.086,-1.021 -2.533,-2.698 -3.915,-3.981 -1.381,-1.282 -2.894,-2.926 -3.453,-3.452 -0.56,-0.527 -1.645,-1.646 -1.941,-2.106 -0.296,-0.461 -1.184,-1.875 -1.973,-2.599 -0.79,-0.723 -2.894,-2.696 -3.882,-3.584 -0.987,-0.888 -3.716,-3.619 -4.275,-3.947 -0.56,-0.33 -1.218,0 -1.218,-0.658 0,-0.234 0,-0.56 0.132,-0.526 0.132,0.032 0.725,0.098 1.514,0.164 0.789,0.066 2.302,0.197 3.552,0.263 1.25,0.066 3.782,-0.197 6.051,-0.362 2.271,-0.164 6.414,-0.131 8.091,-0.065 1.678,0.065 4.375,0.23 5.625,0.263 1.25,0.033 1.678,-0.231 2.204,-0.198 0.526,0.033 0.724,-0.592 0.92,-1.019 0.198,-0.428 0.263,-1.349 0.198,-1.809 -0.065,-0.461 -0.198,-1.184 -0.033,-1.48" /><path
       inkscape:connector-curvature="0"
       id="path4484"
       style="fill:#b6242a;fill-opacity:1;fill-rule:nonzero;stroke:none"
       d="m 376.85,407.22 c 0.132,0.454 0.056,0.748 0.056,0.748 0,0 -1.053,-2.908 -1.246,-3.268 -0.194,-0.36 0.055,-0.443 0.082,-0.719 0.028,-0.277 -0.139,-1.606 -0.027,-1.882 0.111,-0.278 0.193,0.082 0.193,0.082 0,0 0.028,0.803 0.167,1.578 0.138,0.775 0.22,1.329 0.359,2.049 0.139,0.721 0.166,0.549 0.416,1.412" /><path
       inkscape:connector-curvature="0"
       id="path4486"
       style="fill:#b6242a;fill-opacity:1;fill-rule:nonzero;stroke:none"
       d="m 364.292,343.068 c 0.021,-0.548 0,-0.877 -0.197,-0.854 -0.196,0.022 -0.569,0.306 -0.636,0.767 -0.064,0.459 -0.02,0.721 -0.064,1.247 -0.044,0.525 -0.088,0.59 -0.065,1.117 0.021,0.524 0.021,0.349 0.174,0.786 0.154,0.438 0.197,0.438 0.175,0.898 -0.021,0.46 -0.095,1.72 0.037,1.873 0,0 0.423,-1.129 0.555,-1.764 0.13,-0.635 -0.056,-1.235 -0.076,-2.065 -0.024,-0.832 0.076,-1.459 0.097,-2.005 z m 11.534,24.051 c 0.131,3.107 0.24,10.833 0.306,13.81 0.065,2.976 0.07,6.818 -0.066,9.366 -0.113,2.134 -0.053,5.482 -0.25,7.276 -0.197,1.795 -0.8,3.163 -0.648,4.28 0.154,1.116 0.416,2.231 0.088,2.013 0,0 -0.35,-0.439 -0.832,-1.489 -0.481,-1.05 -1.225,-1.75 -2.057,-2.889 -0.831,-1.138 -1.618,-2.318 -3.063,-3.763 -1.445,-1.444 -2.232,-2.539 -5.515,-4.202 -3.283,-1.664 -5.837,-2.452 -8.688,-2.801 -3.884,-0.477 -4.837,-0.416 -7.157,-0.35 -2.503,0.071 -6.194,0.175 -9.3,0.656 -3.108,0.482 -5.516,1.051 -10.571,3.392 0,0 -4.29,1.773 -5.865,3.086 -1.576,1.314 -3.304,3.019 -4.464,3.917 -1.161,0.897 -3.218,2.276 -4.269,3.065 0.11,-0.526 0.448,-0.652 0.667,-1.089 0.22,-0.438 0.826,-0.926 1.351,-1.43 0.526,-0.504 1.175,-0.81 1.35,-1.072 0.175,-0.263 0.2,-1.574 0.157,-2.165 -0.044,-0.591 -0.022,-1.511 0.087,-2.517 0.11,-1.008 0.153,-1.969 0.153,-2.671 0,-0.699 -0.022,-1.422 -0.087,-1.771 -0.066,-0.352 -0.307,-0.329 -0.657,-0.46 -0.35,-0.132 -1.576,-0.132 -3.349,-0.263 -1.772,-0.132 -7.067,-0.482 -9.585,-0.372 -2.517,0.109 -10.614,-0.044 -13.043,-0.11 -2.43,-0.065 -11.248,-0.065 -13.678,-0.065 -2.429,0 -4.508,-0.153 -6.937,-0.066 -2.429,0.088 -5.319,0.328 -6.916,0.504 -1.598,0.175 -2.406,0.524 -2.889,0.634 -0.481,0.11 -0.896,0.154 -0.963,-0.853 -0.065,-1.007 -0.306,-2.89 -0.284,-3.853 0.022,-0.962 -0.022,-5.142 -0.044,-7.309 -0.021,-2.166 0.022,-7.134 0.066,-8.732 0.043,-1.597 0.022,-6.499 0.022,-8.294 0,-1.795 -0.263,-5.843 -0.285,-7.463 -0.022,-1.62 -0.066,-5.865 0.044,-7.857 0.109,-1.992 0.35,-8.118 0.504,-10.439 0.153,-2.319 0.24,-6.258 0.218,-8.49 -0.022,-2.233 -0.437,-5.713 -0.525,-6.807 -0.088,-1.095 -0.328,-1.357 -0.591,-2.166 -0.262,-0.81 -0.285,-1.313 0.875,-1.226 1.16,0.088 3.239,0.35 4.114,0.416 0.876,0.066 1.467,-0.263 1.314,2.253 -0.153,2.518 -0.7,8.274 -0.723,11.841 -0.021,3.567 0.023,13.458 0.088,16.479 0.066,3.02 0.11,10.57 0.11,13.218 0,2.648 0.24,9.017 0.218,11.073 -0.021,2.058 -0.131,5.822 -0.044,7.945 0.088,2.123 0.11,3.829 0.329,4.42 0.219,0.592 0.634,1.598 2.32,1.642 1.684,0.043 5.384,-0.153 6.697,-0.219 1.312,-0.065 4.704,-0.175 5.974,-0.197 1.268,-0.022 3.173,0.175 4.289,0.263 1.117,0.087 2.364,0.328 2.954,0.415 0.591,0.088 1.576,0.285 2.145,-1.269 0.569,-1.554 1.357,-3.808 2.014,-5.931 0.656,-2.122 1.773,-5.339 2.407,-7.463 0.634,-2.122 1.116,-3.457 1.619,-5.033 0.503,-1.576 1.226,-3.895 1.751,-5.58 0.526,-1.686 0.745,-2.43 1.029,-3.698 0.285,-1.27 0.416,-1.795 0.613,-2.671 0.219,0.35 0.46,2.144 0.985,3.349 0.525,1.203 2.209,5.098 2.997,7.221 0.789,2.123 2.671,7.594 3.808,10.593 1.138,2.997 3.239,8.687 3.567,9.322 0.33,0.635 1.27,0.81 2.802,0.877 1.531,0.064 5.121,0.196 7.77,0.305 2.647,0.11 5.996,0.285 7.943,0.329 1.948,0.043 3.195,0 3.699,-0.132 0.503,-0.131 1.05,-0.393 1.313,-0.788 0.262,-0.394 0.305,-1.487 0.393,-2.516 0.088,-1.028 0.175,-5.58 0.155,-8.119 -0.023,-2.539 -0.133,-7.682 -0.088,-10.571 0.043,-2.888 -0.087,-7.615 0,-9.914 0.088,-2.297 0.284,-8.097 0.349,-10.701 0.066,-2.604 -0.088,-6.193 -0.065,-8.382 0.021,-2.188 0.087,-3.655 0.175,-6.128 0.088,-2.473 0.153,-3.699 0.284,-5.668 0.132,-1.969 0.153,-2.998 0.219,-4.071 0.066,-1.071 0.132,-1.903 0.175,-2.165 0.044,-0.263 0.219,-0.351 0.942,-0.395 0.722,-0.043 2.998,0.044 4.004,0.044 1.007,0 2.714,0.306 3.699,0.372 0.985,0.066 3.698,0.262 5.668,0.394 1.969,0.132 3.633,0.132 5.186,0.088 1.554,-0.044 3.59,-0.285 5.231,-0.394 1.642,-0.109 3.458,-0.067 4.574,-0.175 1.116,-0.11 2.604,-0.11 3.633,-0.11 1.028,0 2.035,0.088 2.955,0.066 0.918,-0.023 2.734,0.175 3.041,0.11 0.307,-0.066 0.635,-0.133 0.679,0.744 0.044,0.874 0.087,1.948 -0.044,2.078 -0.132,0.132 -0.482,0.175 -1.904,0.198 -1.422,0.021 -2.211,0.152 -3.611,0.175 -1.401,0.021 -4.311,0.13 -6.697,0.065 -2.386,-0.065 -4.901,-0.065 -6.806,-0.152 -1.904,-0.088 -5.055,-0.177 -6.806,-0.264 -1.751,-0.088 -3.437,-0.044 -4.881,0.065 -1.444,0.111 -3.217,0.132 -4.026,0.526 -0.81,0.394 -1.051,1.51 -0.984,2.627 0.064,1.116 0.108,4.223 0.108,6.018 0,1.794 -0.152,8.49 -0.196,10.854 -0.044,2.364 -0.044,9.301 -0.065,12.19 -0.023,2.889 0,8.469 -0.023,11.226 -0.021,2.758 0,9.039 0,11.688 0,2.647 0.109,5.23 0.219,6.937 0.109,1.706 0,3.589 0.065,3.851 0.066,0.263 0.241,0.219 1.445,0.11 1.204,-0.11 4.027,-0.394 5.953,-0.46 1.926,-0.066 4.179,-0.218 6.039,0.022 1.86,0.241 3.35,0.503 4.465,0.81 1.117,0.306 2.233,0.634 2.844,0.81 0.614,0.174 1.795,0.722 1.993,-0.416 0.197,-1.138 0.284,-3.612 0.35,-5.055 0.066,-1.445 0.328,-4.969 0.394,-6.96 0.065,-1.992 0.219,-5.449 0.197,-7.309 -0.022,-1.861 -0.066,-4.596 -0.132,-6.456 -0.065,-1.861 -0.437,-5.34 -0.437,-7.288 0,-1.948 0.02,-5.121 -0.022,-7.835 -0.044,-2.713 -0.088,-4.464 -0.066,-5.23 0.022,-0.766 -0.284,-1.728 1.86,-1.62 2.145,0.11 4.728,0.329 5.779,0.394 1.049,0.066 2.34,-0.153 3.172,-0.241 0.831,-0.087 2.473,-0.065 2.714,0.044 0.11,0.175 0.087,0.657 0.044,3.216 -0.044,2.562 0.022,7.771 0.043,10.725 0.023,2.955 0.263,11.095 0.395,14.203" /><path
       inkscape:connector-curvature="0"
       id="path4488"
       style="fill:#b6242a;fill-opacity:1;fill-rule:nonzero;stroke:none"
       d="m 345.292,383.889 c -0.956,0.027 -2.773,0.164 -3.227,0.33 -0.455,0.166 -1.137,0.22 -1.545,0.027 -0.41,-0.193 -0.364,-0.634 -0.546,-1.323 -0.182,-0.69 0,-1.296 -0.227,-2.261 -0.113,-0.478 0.5,0 0.5,0.248 0,0.249 0.364,0.524 0.409,0.882 0.046,0.359 0,0.634 0.046,1.159 0.046,0.524 0.226,0.524 0.817,0.689 0.59,0.165 0.908,0.111 1.682,0.056 0.772,-0.056 1.681,-0.332 2.909,-0.332 1.225,0 1.317,0.221 1.09,0.359 -0.227,0.137 -0.954,0.137 -1.908,0.166" /><path
       inkscape:connector-curvature="0"
       id="path4490"
       style="fill:#b6242a;fill-opacity:1;fill-rule:nonzero;stroke:none"
       d="m 331.333,369.711 c -0.029,1.001 -0.113,2.954 -0.142,3.909 -0.026,0.954 0.029,1.863 0.029,1.863 0.056,0.274 0.225,-0.772 0.252,-2.317 0.028,-1.545 0.112,-3.682 0.112,-3.954 0,-0.273 -0.224,-0.5 -0.251,0.499 z m 0.42,6.181 c -0.027,1.682 -0.205,2.42 -0.281,2.227 -0.336,-0.864 -0.307,-0.772 -0.392,-1.454 -0.084,-0.682 -0.224,-1.682 -0.309,-2.863 -0.083,-1.182 -0.083,-1.5 0.029,-2.318 0.112,-0.818 0.28,-1.091 0.365,-2.364 0.084,-1.271 0.335,-3.135 0.56,-3.68 0.141,0.864 0.084,2.727 0.028,4.589 -0.056,1.864 0.028,4.182 0,5.863" /><path
       inkscape:connector-curvature="0"
       id="path4492"
       style="fill:#b6242a;fill-opacity:1;fill-rule:nonzero;stroke:none"
       d="m 282.44,322.733 c -0.204,-3.062 1.021,-5.614 1.429,-7.145 0,0 2.042,0.255 4.133,0.51 2.094,0.256 5.054,0.153 8.166,0.256 3.114,0.101 8.779,0.356 11.177,0.409 2.398,0.051 5.052,0.204 6.022,0.102 0.969,-0.103 1.224,-0.155 1.378,0 0.152,0.152 0.05,0.713 -0.051,1.581 -0.103,0.868 -0.255,2.296 -0.358,4.492 -0.102,2.193 -0.254,4.949 -0.306,7.909 -0.051,2.961 -0.102,7.961 -0.154,9.288 -0.05,1.327 0.154,5.869 0.154,6.277 0,0.409 -0.204,0.512 -0.307,0.715 -0.101,0.204 -0.356,-0.664 -0.765,-1.939 -0.408,-1.276 -0.765,-2.45 -1.224,-3.828 -0.459,-1.377 -0.511,-2.603 -1.021,-4.44 -0.511,-1.837 -1.328,-6.328 -2.806,-11.33 -1.481,-5 -2.349,-4.796 -2.96,-4.949 -0.614,-0.153 -2.756,-0.153 -3.726,-0.153 -0.971,0 -4.951,-0.358 -6.073,-0.409 -1.123,-0.051 -1.939,-0.255 -2.398,-0.102 -0.205,0.205 -2.145,5.103 -2.807,7.042 -0.664,1.941 -1.941,6.125 -2.603,8.115 -0.664,1.99 -2.807,8.574 -3.113,10.054 -0.307,1.48 -0.766,3.776 -0.766,3.776 0,0 -0.153,-0.51 -0.306,-1.531 -0.154,-1.021 0.205,-2.757 0.205,-4.695 0,-1.939 -0.103,-5.818 -0.153,-8.421 -0.052,-2.603 -0.563,-8.522 -0.767,-11.584" /><path
       inkscape:connector-curvature="0"
       id="path4494"
       style="fill:#b6242a;fill-opacity:1;fill-rule:nonzero;stroke:none"
       d="m 257.729,399.889 c -0.022,0.679 -0.068,1.357 -0.068,1.527 0,0 -0.137,-0.254 -0.204,-0.72 -0.07,-0.467 -0.125,-1.57 -0.137,-2.334 -0.012,-0.763 0,-2.418 0,-2.418 0,0 -0.069,2.121 -0.091,2.461 -0.022,0.338 -0.046,-1.146 -0.034,-2.164 0.012,-1.017 0.091,-1.654 0.17,-2.63 0.08,-0.975 0.125,-1.484 0.193,-1.527 0.068,-0.041 0.114,1.019 0.091,1.867 -0.023,0.849 -0.011,1.187 -0.023,2.333 -0.01,1.145 0.126,2.927 0.103,3.605" /><path
       inkscape:connector-curvature="0"
       id="path4496"
       style="fill:#b6242a;fill-opacity:1;fill-rule:nonzero;stroke:none"
       d="m 258.329,408.789 c 0,0 0.806,0.559 1.426,1.365 0.62,0.806 0.682,1.489 1.365,2.481 0.681,0.993 2.109,2.544 4.28,4.776 2.171,2.233 5.767,5.52 7.504,7.443 1.736,1.922 5.086,4.714 7.381,6.822 2.295,2.109 5.707,5.582 6.512,6.388 0.807,0.807 0.683,0.992 -0.061,1.303 -0.744,0.309 -3.784,0.434 -5.645,0.496 -1.861,0.062 -5.334,-0.187 -7.506,-0.187 -2.169,0 -6.325,-0.061 -8.805,-0.061 -2.483,0 -4.423,0 -4.423,0 l -0.594,-0.256 c 0,0 -0.274,-0.116 -0.15,-0.303 l 0,-0.372 c 0,0 0.062,-0.868 -0.186,-2.418 -0.248,-1.551 -0.124,-3.474 -0.186,-5.397 -0.062,-1.922 -0.059,-6.822 -0.183,-9.117 -0.124,-2.294 -0.109,-7.07 -0.109,-7.815 0,-0.744 -0.248,-1.488 -0.372,-2.666 -0.124,-1.179 -0.248,-2.482 -0.248,-2.482" /><path
       inkscape:connector-curvature="0"
       id="path4498"
       style="fill:#b6242a;fill-opacity:1;fill-rule:nonzero;stroke:none"
       d="m 266.043,315.799 c 0.423,-0.548 0.549,-0.085 0.675,0 0.127,0.083 0.127,0.969 0.084,1.433 -0.041,0.464 0,1.559 -0.084,2.361 -0.084,0.8 -0.168,2.319 -0.252,3.456 -0.085,1.138 -0.59,5.859 -0.59,5.859 0,0 -0.043,-0.928 -0.043,-1.222 0,-0.295 -0.041,-1.097 -0.084,-2.024 -0.041,-0.927 0.084,-2.065 0.043,-3.203 -0.043,-1.138 0.21,-2.613 0.251,-3.794 0.043,-1.181 -0.36,-2.397 0,-2.866" /><path
       inkscape:connector-curvature="0"
       id="path4500"
       style="fill:#b6242a;fill-opacity:1;fill-rule:nonzero;stroke:none"
       d="m 361.48,471.467 c 0.226,0.01 -0.726,-0.029 -0.501,-0.021 0,0 0,0 0,-0.001 0.167,0.008 0.336,0.015 0.501,0.022" /><path
       inkscape:connector-curvature="0"
       id="path4502"
       style="fill:#b6242a;fill-opacity:1;fill-rule:nonzero;stroke:none"
       d="m 346.589,468.949 c 3.88,0.073 6.162,0.111 9.883,0.258 1.068,0.456 2.153,0.368 4.507,2.238 -6.034,-0.252 -13.114,-0.545 -19.297,-0.611 0.58,-1.278 4.096,-1.247 4.907,-1.885" /><path
       inkscape:connector-curvature="0"
       id="path4504"
       style="fill:#b6242a;fill-opacity:1;fill-rule:nonzero;stroke:none"
       d="m 383.713,311.692 c -0.035,1.379 -0.1,3.45 -0.185,6.1 -0.448,14.198 -1.382,43.744 -1.104,72.666 0.136,14.039 0.344,28.191 0.529,40.678 0.272,18.441 0.487,33.007 0.354,39.186 l -0.029,1.432 -1.43,0.079 c -1.369,0.076 -3.036,-0.285 -4.862,-0.285 -1.951,0 -3.083,0.022 -5.333,0.037 -0.84,-0.731 -1.339,-1.957 -2.851,-2.908 3.786,0.146 5.257,0.177 8.298,0.177 1.154,0 2.634,-0.015 3.58,-0.045 0.076,-6.786 -0.127,-20.54 -0.378,-37.628 -0.184,-12.49 0.347,-26.788 0.213,-40.834 -0.278,-28.988 -0.086,-58.433 0.364,-72.653 0.057,-1.787 0.105,-3.752 0.141,-4.975 -20.461,-0.489 -54.77,-0.623 -82.114,-0.731 -18.837,-0.074 -35.707,-0.138 -44.287,-0.297 0.477,29.106 0.185,59.727 0.32,86.91 0.142,28.621 0.681,54.348 -0.11,70.982 7.04,-0.183 35.063,-0.874 50.772,-0.874 3.36,0 6.016,-0.411 7.896,-0.348 0.544,0.018 1.137,0.468 1.814,0.468 2.409,0 5.393,-0.112 8.848,-0.243 2.299,-0.087 3.383,-0.139 5.963,-0.21 0.285,0.888 0.838,1.865 1.044,2.62 -2.863,0.074 -4.363,0.142 -6.89,0.238 -3.486,0.132 -6.498,0.246 -8.965,0.246 -0.712,0 -1.34,-0.009 -1.918,-0.028 -1.844,-0.062 -4.466,-0.093 -7.792,-0.093 -7.584,0 -18.318,-0.37 -27.794,-0.182 -12.983,0.256 -23.927,1.095 -24.122,1.1 l -1.673,0.045 0.087,-1.67 c 1.888,-36.34 0.507,-119.91 -0.157,-160.072 l -0.026,-1.607 1.607,0.036 c 7.981,0.18 25.319,0.249 45.394,0.328 28.064,0.112 62.989,0.248 83.29,0.771 l 1.546,0.039 -0.04,1.545" /><path
       inkscape:connector-curvature="0"
       id="path4506"
       style="fill:#b6242a;fill-opacity:1;fill-rule:nonzero;stroke:none"
       d="m 333.701,468.471 c 0,-0.105 -0.224,-0.372 -0.224,-0.372 l -0.36,-0.609 -0.013,0.112 c 0,0 0.712,2.517 0.9,3.213 0,-0.423 0.105,-1.294 0.105,-1.294 0,0 -0.408,-0.944 -0.408,-1.05 z m 30.098,2.667 c 0.246,0.157 0.656,0.313 0.847,0.44 0.449,0.298 1.064,0.598 1.064,0.598 l -2.541,-1.762 c 0,0 -2.057,-1.132 -3.069,-1.396 0.978,0.489 2.928,1.628 3.699,2.12 z m -5.896,-7.72 c 8.778,3.349 15.364,11.82 21.595,21.396 -19.521,-20.492 -31.354,-21.025 -43.977,-11.032 -2.307,0.07 -2.603,-5.085 -3.243,-6.833 2.472,-1.329 4.822,-2.373 7.059,-3.159 7.243,-2.546 13.298,-2.381 18.566,-0.372" /></g></svg>